<?xml version="1.0" encoding="UTF-8"?>
<svg id="Layer_2" data-name="Layer 2" xmlns="http://www.w3.org/2000/svg" viewBox="0 0 870.84 183.02">
  <defs>
    <style>
      .cls-1 {
        fill: #C04C4C;
      }

      .cls-2 {
        fill: #282828;
      }
    </style>
  </defs>
  <g id="Layer_1-2" data-name="Layer 1">
    <path class="cls-2" d="M67.71,183.02c-9.4,0-17.95-.23-25.66-.69s-14.33-1.57-19.85-3.32c-5.53-1.75-9.8-4.51-12.81-8.29-3.01-3.78-4.51-8.95-4.51-15.52h17.69c0,4.3,1.67,7.37,5.02,9.21,3.35,1.84,8.37,2.95,15.06,3.32,6.69.37,15.05.55,25.06.55,7.43,0,13.79-.23,19.07-.69,5.28-.46,9.6-1.8,12.94-4.01,3.35-2.21,5.8-5.91,7.37-11.1,1.57-5.19,2.35-12.48,2.35-21.88v-2.49c-4.3,5.53-10.21,9.18-17.73,10.96-7.52,1.78-16.85,2.67-27.96,2.67s-21.28-.66-29.39-1.98c-8.11-1.32-14.69-3.82-19.76-7.51-5.07-3.69-8.77-9.03-11.1-16.03-2.33-7-3.5-16.15-3.5-27.46,0-12.04,1.17-21.68,3.5-28.93,2.33-7.25,6.03-12.7,11.1-16.35,5.07-3.65,11.65-6.08,19.76-7.28,8.11-1.2,17.9-1.8,29.39-1.8s20.44.82,27.96,2.44c7.52,1.63,13.43,5.24,17.73,10.83v-11.24h17.69v94.89c-.25,11.67-1.72,20.96-4.42,27.87-2.7,6.91-6.56,12.07-11.56,15.48-5.01,3.41-11.15,5.65-18.43,6.72-7.28,1.07-15.62,1.61-25.01,1.61ZM109.45,88.77c0-8.78-.54-15.8-1.61-21.05-1.08-5.25-3.16-9.21-6.26-11.88-3.1-2.67-7.68-4.45-13.73-5.34-6.05-.89-14.08-1.34-24.09-1.34-10.57,0-18.93.45-25.11,1.34-6.17.89-10.76,2.67-13.77,5.34-3.01,2.67-4.96,6.63-5.85,11.88-.89,5.25-1.34,12.27-1.34,21.05,0,7.99.45,14.5,1.34,19.53.89,5.04,2.82,8.91,5.8,11.61,2.98,2.7,7.57,4.56,13.77,5.57,6.2,1.01,14.59,1.52,25.15,1.52,10.01,0,18.04-.51,24.09-1.52,6.05-1.01,10.62-2.87,13.73-5.57,3.1-2.7,5.19-6.57,6.26-11.61,1.07-5.04,1.61-11.55,1.61-19.53Z"/>
    <path class="cls-2" d="M151.46,142.57V36.44h17.69v14.1c2.64-3.56,5.91-6.54,9.81-8.94s9.12-4.19,15.66-5.39c6.54-1.2,15.12-1.8,25.75-1.8,13.88,0,24.83,1.35,32.84,4.05,8.01,2.7,13.71,7.52,17.09,14.46,3.38,6.94,5.07,16.77,5.07,29.48v60.16h-17.78v-60.16c0-7.25-.61-13.08-1.84-17.5-1.23-4.42-3.33-7.77-6.31-10.04-2.98-2.27-7.08-3.79-12.3-4.56-5.22-.77-11.85-1.15-19.9-1.15-12.29,0-21.93,1.01-28.93,3.04-7,2.03-11.95,5.21-14.83,9.54-2.89,4.33-4.33,9.97-4.33,16.91v63.94h-17.69Z"/>
    <path class="cls-2" d="M531.16,144.6c-12.9,0-23.26-.43-31.09-1.29s-13.76-2.46-17.78-4.79c-4.02-2.33-6.73-5.65-8.11-9.95-1.38-4.3-2.07-9.89-2.07-16.77h16.95c0,3.87.28,6.99.83,9.35.55,2.37,2.12,4.18,4.7,5.44,2.58,1.26,6.77,2.12,12.58,2.58,5.8.46,13.96.69,24.46.69,11.12,0,19.76-.23,25.93-.69,6.17-.46,10.61-1.32,13.31-2.58,2.7-1.26,4.34-3.09,4.93-5.48.58-2.4.88-5.56.88-9.49,0-4.79-.43-8.38-1.29-10.78-.86-2.4-2.89-4.01-6.08-4.84-3.19-.83-8.29-1.27-15.29-1.34l-42.19-.46c-10.87-.12-19.16-1.04-24.88-2.76-5.71-1.72-9.61-4.74-11.7-9.07-2.09-4.33-3.13-10.49-3.13-18.47,0-7.43,1.15-13.17,3.46-17.23,2.3-4.05,5.91-6.94,10.83-8.66,4.91-1.72,11.3-2.75,19.16-3.09,7.86-.34,17.35-.51,28.47-.51,13.08,0,23.48.4,31.19,1.2,7.71.8,13.48,2.3,17.32,4.51,3.84,2.21,6.36,5.42,7.55,9.63,1.2,4.21,1.8,9.69,1.8,16.45h-16.95c0-3.99-.28-7.14-.83-9.44-.55-2.3-2.04-3.99-4.47-5.07-2.43-1.07-6.36-1.76-11.79-2.07-5.44-.31-13.07-.46-22.89-.46-11.18,0-19.87.12-26.07.37-6.2.25-10.69.83-13.45,1.75-2.76.92-4.45,2.38-5.07,4.38-.61,2-.92,4.74-.92,8.25s.2,6.37.6,8.43c.4,2.06,1.46,3.61,3.18,4.65,1.72,1.04,4.53,1.74,8.43,2.07,3.9.34,9.35.54,16.35.6l36.39.37c10.93.12,19.24,1.03,24.92,2.72,5.68,1.69,9.55,4.79,11.61,9.3,2.06,4.51,3.09,11.04,3.09,19.58,0,7.68-1.12,13.73-3.36,18.15-2.24,4.42-5.82,7.69-10.73,9.81-4.91,2.12-11.38,3.49-19.39,4.1-8.01.61-17.8.92-29.34.92Z"/>
    <path class="cls-2" d="M628.16,177.95v-14.74c6.33,0,11.56-.14,15.71-.41s7.62-1.04,10.41-2.3c2.79-1.26,5.31-3.3,7.55-6.13,2.24-2.83,4.59-6.76,7.05-11.79h-5.9l-58.96-106.13h20.27l50.49,92.96,42.47-92.96h20.73l-53.8,112.03c-2.4,4.97-4.87,9.3-7.42,12.99-2.55,3.68-5.74,6.76-9.58,9.21-3.84,2.46-8.86,4.28-15.06,5.48-6.2,1.2-14.19,1.8-23.95,1.8Z"/>
    <path class="cls-2" d="M808.01,144.6c-12.9,0-23.26-.43-31.09-1.29s-13.76-2.46-17.78-4.79c-4.02-2.33-6.73-5.65-8.11-9.95-1.38-4.3-2.07-9.89-2.07-16.77h16.95c0,3.87.28,6.99.83,9.35.55,2.37,2.12,4.18,4.7,5.44,2.58,1.26,6.77,2.12,12.58,2.58,5.8.46,13.96.69,24.46.69,11.12,0,19.76-.23,25.93-.69,6.17-.46,10.61-1.32,13.31-2.58,2.7-1.26,4.34-3.09,4.93-5.48.58-2.4.88-5.56.88-9.49,0-4.79-.43-8.38-1.29-10.78-.86-2.4-2.89-4.01-6.08-4.84-3.19-.83-8.29-1.27-15.29-1.34l-42.19-.46c-10.87-.12-19.16-1.04-24.88-2.76-5.71-1.72-9.61-4.74-11.7-9.07-2.09-4.33-3.13-10.49-3.13-18.47,0-7.43,1.15-13.17,3.46-17.23,2.3-4.05,5.91-6.94,10.83-8.66,4.91-1.72,11.3-2.75,19.16-3.09,7.86-.34,17.35-.51,28.47-.51,13.08,0,23.48.4,31.19,1.2,7.71.8,13.48,2.3,17.32,4.51,3.84,2.21,6.36,5.42,7.55,9.63,1.2,4.21,1.8,9.69,1.8,16.45h-16.95c0-3.99-.28-7.14-.83-9.44-.55-2.3-2.04-3.99-4.47-5.07-2.43-1.07-6.36-1.76-11.79-2.07-5.44-.31-13.07-.46-22.89-.46-11.18,0-19.87.12-26.07.37-6.2.25-10.69.83-13.45,1.75-2.76.92-4.45,2.38-5.07,4.38-.61,2-.92,4.74-.92,8.25s.2,6.37.6,8.43c.4,2.06,1.46,3.61,3.18,4.65,1.72,1.04,4.53,1.74,8.43,2.07,3.9.34,9.35.54,16.35.6l36.39.37c10.93.12,19.24,1.03,24.92,2.72,5.68,1.69,9.55,4.79,11.61,9.3,2.06,4.51,3.09,11.04,3.09,19.58,0,7.68-1.12,13.73-3.36,18.15-2.24,4.42-5.82,7.69-10.73,9.81-4.91,2.12-11.38,3.49-19.39,4.1-8.01.61-17.8.92-29.34.92Z"/>
    <g>
      <path class="cls-1" d="M450.14,76.86l-27.25-47.2c-4.5-7.8-12.9-12.65-21.9-12.65h-54.5c-9.01,0-17.4,4.85-21.9,12.65l-27.25,47.2c-4.5,7.8-4.5,17.49,0,25.29l27.25,47.2c4.5,7.8,12.9,12.65,21.9,12.65h54.5c9.01,0,17.4-4.85,21.9-12.65l27.25-47.2c4.51-7.8,4.51-17.49,0-25.29ZM442.69,97.85l-27.25,47.2c-2.98,5.16-8.49,8.34-14.45,8.34h-54.5c-5.96,0-11.47-3.18-14.45-8.34l-27.25-47.2c-2.98-5.16-2.98-11.52,0-16.68l27.25-47.2c2.98-5.16,8.49-8.34,14.45-8.34h54.5c5.96,0,11.47,3.18,14.45,8.34l27.25,47.2c2.98,5.16,2.98,11.52,0,16.68Z"/>
      <path class="cls-1" d="M442.65,36.15L385.49,3.15c-7.27-4.2-16.23-4.2-23.5,0l-57.16,33c-7.27,4.2-11.75,11.96-11.75,20.36v66c0,8.4,4.48,16.16,11.75,20.36l57.16,33c7.27,4.2,16.23,4.2,23.5,0l57.16-33c7.27-4.2,11.75-11.96,11.75-20.36V56.51c0-8.4-4.48-16.16-11.75-20.36ZM445.79,122.51c0,5.3-2.85,10.24-7.45,12.9l-57.16,33c-2.26,1.3-4.84,1.99-7.45,1.99s-5.19-.69-7.45-1.99l-57.16-33c-4.59-2.65-7.45-7.59-7.45-12.9V56.51c0-5.3,2.85-10.24,7.45-12.9l57.16-33c2.26-1.31,4.83-2,7.45-2s5.18.69,7.45,2l57.16,33c4.59,2.65,7.45,7.59,7.45,12.9v66Z"/>
    </g>
  </g>
</svg>